<?xml version="1.0" encoding="UTF-8"?><svg xmlns="http://www.w3.org/2000/svg" viewBox="0 0 472.52 472.52"><defs><style>.d{fill:#fff;}.e{fill:#58b6ca;}</style></defs><g id="a"/><g id="b"><g id="c"><circle class="d" cx="236.26" cy="236.26" r="236.26"/><g><path class="e" d="M100.24,357.56c-12.2,.76-21.47,11.27-20.71,23.47,.76,12.2,11.27,21.47,23.47,20.71s21.47-11.27,20.71-23.47h0c-.76-12.2-11.27-21.47-23.47-20.71Z"/><path class="e" d="M182.35,240.81c-27.41,1.72-48.24,25.33-46.52,52.74,1.72,27.41,25.33,48.24,52.74,46.52,27.41-1.72,48.24-25.33,46.52-52.74h0c-1.72-27.41-25.33-48.24-52.74-46.52Z"/><path class="e" d="M305.12,70.91c-44.97,2.82-79.14,41.56-76.32,86.53s41.56,79.14,86.53,76.32c44.97-2.82,79.14-41.56,76.32-86.53h0c-2.76-44.92-41.42-79.1-86.35-76.34h-.18Z"/></g></g></g></svg>