<?xml version="1.0" encoding="UTF-8"?>
<svg xmlns="http://www.w3.org/2000/svg" viewBox="0 0 65.42 86.68">
	<defs>
		<style>
			.e{fill:transparent;stroke:#57b6ca;stroke-miterlimit:10;stroke-width:2px;}
		</style>
	</defs>
	<g id="a" />
	<g id="b">
		<g id="c">
			<path id="d" class="e" d="M23.35,.82c4.04,.12,7.25,3.41,7.28,7.44V24.84c2.83-2.71,8.27-3.05,11.78,1.05,3.79-2.37,8.81-.36,10.35,2.73,8.16-1.49,11.84,3.65,11.84,12.06,0,.46-.03,2.21-.03,2.66,.03,10.29-5.16,12.77-6.36,20.55-.3,1.94-1.97,3.37-3.94,3.37H25.78c-3.15,0-6-1.85-7.28-4.73-2.16-4.8-8.15-15.85-12.85-17.86-3.02-1.3-4.83-3.55-4.83-6.65,0-4.41,3.58-7.97,7.99-7.97,1.08,0,2.14,.22,3.13,.64,1.46,.64,2.85,1.42,4.14,2.35V8.26c0-3.9,3.41-7.44,7.28-7.44h0Zm.06,69.1h31.89c2.2,0,3.99,1.78,3.99,3.98h0v7.98c0,2.2-1.78,3.99-3.99,3.99H23.41c-2.2,0-3.99-1.78-3.99-3.99v-7.97c0-2.2,1.78-3.99,3.98-3.99h0Zm27.9,4.65c-1.83,0-3.32,1.49-3.32,3.32s1.49,3.32,3.32,3.32,3.32-1.49,3.32-3.32h0c0-1.83-1.49-3.32-3.32-3.32h0Z" />
		</g>
	</g>
</svg>
