<?xml version="1.0" encoding="UTF-8"?><svg id="a" xmlns="http://www.w3.org/2000/svg" viewBox="0 0 110.75 60.42"><defs><style>.b{fill:#231f20;}.c{fill:#57b6ca;}</style></defs><g><path class="c" d="M57.53,52.35c-2.23,.14-3.92,2.06-3.78,4.28s2.06,3.92,4.28,3.78,3.92-2.06,3.78-4.28h0c-.14-2.23-2.06-3.92-4.28-3.78Z"/><path class="c" d="M72.52,31.04c-5,.31-8.8,4.62-8.49,9.63,.31,5,4.62,8.8,9.63,8.49,5-.31,8.8-4.62,8.49-9.63h0c-.31-5-4.62-8.8-9.63-8.49Z"/><path class="c" d="M94.93,.03c-8.21,.51-14.44,7.59-13.93,15.79s7.59,14.44,15.79,13.93,14.44-7.59,13.93-15.79h0C110.22,5.76,103.16-.48,94.96,.03h-.03Z"/></g><g><polygon class="b" points="22.83 12.05 18.76 12.05 18.76 8.64 17.6 8.64 17.6 16.91 18.76 16.91 18.76 13.06 22.83 13.06 22.83 16.91 23.99 16.91 23.99 8.64 22.83 8.64 22.83 12.05"/><polygon class="b" points="29.55 15.4 29.52 15.55 29.49 15.41 27.33 8.64 26.11 8.64 28.88 16.91 30.06 16.91 32.9 8.64 31.8 8.64 29.55 15.4"/><polygon class="b" points="54.43 15.4 54.4 15.55 54.37 15.41 52.21 8.64 50.99 8.64 53.76 16.91 54.94 16.91 57.79 8.64 56.68 8.64 54.43 15.4"/><path class="b" d="M63.24,12.5l-1.85-.55c-.56-.17-.93-.25-.92-.71v-.74c-.02-.46,.33-.85,.79-.87,.03,0,.07,0,.1,0h3.39v-.64c0-.31-.32-.37-.72-.37h-2.6c-.59-.04-1.17,.18-1.58,.61-.32,.34-.5,.8-.5,1.27v.81c0,1.05,.59,1.36,1.74,1.65l1.92,.56c.58,.16,.85,.29,.85,.75v.35c.08,.61-.35,1.16-.96,1.24-.06,0-.12,.01-.18,0h-3.38v.63c0,.27,.23,.36,.48,.36h2.9c.59,.04,1.17-.14,1.63-.5,.45-.46,.68-1.08,.64-1.72v-.54c.01-1.03-.7-1.36-1.75-1.6Z"/><polygon class="b" points="35.02 16.91 40.46 16.91 40.46 15.9 36.18 15.9 36.18 13.06 39.56 13.06 39.56 12.04 36.18 12.04 36.18 9.65 40.46 9.65 40.46 8.64 35.02 8.64 35.02 16.91"/><path class="b" d="M47.16,13.6c.93,.09,1.75-.6,1.84-1.53,0-.09,0-.18,0-.27v-1.3c.04-.52-.14-1.02-.51-1.39-.44-.34-.99-.5-1.54-.45h-3.77v8.24h1.16v-3.3h1.39l2.24,3.3h1.38l-2.28-3.3h.09Zm-2.82-1v-3h2.28c1,0,1.2,.13,1.23,.91v1.06c0,.83-.19,1-1.12,1l-2.39,.03Z"/><polygon class="b" points=".51 16.91 5.95 16.91 5.95 15.9 1.67 15.9 1.67 13.06 5.05 13.06 5.05 12.04 1.67 12.04 1.67 9.65 5.95 9.65 5.95 8.64 .51 8.64 .51 16.91"/><path class="b" d="M12.65,13.6c.93,.09,1.75-.6,1.84-1.53,0-.09,0-.18,0-.27v-1.3c.04-.52-.14-1.02-.51-1.39-.44-.34-.99-.5-1.54-.45h-3.77v8.24h1.16v-3.3h1.39l2.24,3.3h1.38l-2.28-3.3h.09Zm-2.82-1v-3h2.24c1,0,1.2,.13,1.23,.91v1.06c0,.83-.19,1-1.12,1l-2.35,.03Z"/></g><g><path class="b" d="M2.8,24.84L0,33.17H1.13l.74-2.29h3.23l.8,2.29h1.21l-2.9-8.33h-1.41Zm.69,1-1.3,4l1.26-3.87,1.31,3.87H2.19Z"/><path class="b" d="M22.2,30.88l.8,2.29h1.2l-2.89-8.33h-1.41l-2.8,8.33h1.13l.74-2.29h3.23Zm-1.61-5,0,.15l1.3,3.87h-2.58l1.28-3.87Z"/><polygon class="b" points="41.03 32.17 36.75 32.17 36.75 29.33 40.13 29.33 40.13 28.31 36.75 28.31 36.75 25.92 41.03 25.92 41.03 24.91 35.59 24.91 35.59 33.18 41.03 33.18 41.03 32.17"/><rect class="b" x="55.31" y="24.91" width="1.16" height="8.26"/><polygon class="b" points="48.53 31.63 50.57 26.23 50.66 27.15 51.24 33.18 52.33 33.18 51.52 24.91 49.93 24.91 48.03 30.06 46.12 24.91 44.54 24.91 43.72 33.18 44.82 33.18 45.39 27.15 45.48 26.23 47.52 31.63 48.53 31.63"/><path class="b" d="M31.77,32.56c.51-.57,.76-1.33,.69-2.09v-2.92c.05-.73-.19-1.45-.68-2-.54-.45-1.22-.67-1.92-.62h-3.46v8.24h3.44c.7,.06,1.39-.16,1.93-.61Zm-4.21-.38v-6.27h2.2c1.11,0,1.52,.49,1.54,1.75v2.77c0,1.29-.36,1.72-1.53,1.75h-2.21Z"/><polygon class="b" points="14.28 33.18 15.56 33.18 12.61 28.84 15.48 24.91 14.09 24.91 11.53 28.42 10.55 28.42 10.55 24.91 9.38 24.91 9.38 33.18 10.55 33.18 10.55 29.45 11.6 29.45 14.28 33.18"/></g><g><path class="b" d="M13.73,47.16l.79,2.3h1.21l-2.9-8.35h-1.41l-2.8,8.33h1.14l.73-2.3,3.24,.02Zm-1.61-5-.05,.16l1.29,3.79h-2.54l1.25-3.79Z"/><path class="b" d="M5.24,47.16l.79,2.3h1.21l-2.88-8.35h-1.43L.13,49.44H1.27l.74-2.3,3.23,.02Zm-1.61-5,0,.16l1.26,3.79H2.36l1.27-3.79Z"/><path class="b" d="M49.67,44.99l-1.86-.54c-.55-.17-.93-.26-.92-.71v-.63c-.03-.45,.31-.84,.77-.87,.04,0,.08,0,.12,0h3.39v-.64c0-.32-.32-.37-.72-.37h-2.59c-.59-.04-1.18,.18-1.59,.61-.32,.34-.5,.8-.5,1.27v.81c0,1,.59,1.36,1.75,1.65l1.92,.55c.57,.17,.85,.29,.85,.76v.35c.07,.61-.37,1.17-.98,1.24-.06,0-.11,0-.17,0h-3.38v.63c0,.27,.23,.37,.48,.37h2.91c.59,.04,1.17-.14,1.62-.51,.45-.45,.68-1.08,.64-1.71v-.55c.02-1.09-.7-1.42-1.74-1.72Z"/><path class="b" d="M41.64,47.11c0,.91-.41,1.46-1.3,1.47h-1.33c-.89,0-1.29-.56-1.3-1.47v-5.92h-1.16v5.92c-.05,.7,.2,1.38,.69,1.88,.5,.42,1.15,.64,1.8,.6h1.24c1.24,.13,2.35-.76,2.48-1.99,.02-.16,.02-.32,0-.49v-5.92h-1.12v5.92Z"/><polygon class="b" points="32.09 44.6 28.02 44.6 28.02 41.19 26.86 41.19 26.86 49.46 28.02 49.46 28.02 45.61 32.09 45.61 32.09 49.46 33.25 49.46 33.25 41.19 32.09 41.19 32.09 44.6"/><path class="b" d="M21.91,46.11c.93,.09,1.75-.6,1.84-1.53,0-.09,0-.18,0-.27v-1.28c.04-.51-.14-1.02-.5-1.39-.44-.34-1-.5-1.55-.45h-3.77v8.27h1.16v-3.35h1.39l2.24,3.31h1.39l-2.29-3.31h.09Zm-2.82-1v-3h2.27c1,0,1.21,.12,1.23,.9v1.06c0,.83-.18,1-1.12,1l-2.38,.04Z"/></g></svg>