<?xml version="1.0" encoding="UTF-8"?><svg id="a" xmlns="http://www.w3.org/2000/svg" viewBox="0 0 210.29 34.2"><defs><style>.b{fill:#231f20;}.c{fill:#57b6ca;}</style></defs><path class="b" d="M69.04,8.08l-2.8,8.34h1.14l.73-2.3h3.24l.79,2.3h1.21l-2.9-8.34h-1.41Zm.7,1-1.3,4l1.25-3.87,1.35,3.91-2.6-.04Z"/><path class="b" d="M88.45,14.12l.79,2.3h1.21l-2.9-8.34h-1.41l-2.8,8.34h1.13l.74-2.3h3.24Zm-1.62-5,0,.16l1.31,3.87h-2.61l1.3-3.87Z"/><polygon class="b" points="107.27 15.41 102.99 15.41 102.99 12.57 106.37 12.57 106.37 11.55 102.99 11.55 102.99 9.16 107.27 9.16 107.27 8.16 101.83 8.16 101.83 16.42 107.27 16.42 107.27 15.41"/><rect class="b" x="121.55" y="8.15" width="1.16" height="8.26"/><polygon class="b" points="114.78 14.88 116.82 9.48 116.91 10.39 117.48 16.42 118.58 16.42 117.76 8.16 116.17 8.16 114.27 13.3 112.37 8.16 110.78 8.16 109.96 16.42 111.06 16.42 111.63 10.39 111.72 9.48 113.76 14.88 114.78 14.88"/><path class="b" d="M98.04,15.8c.51-.57,.76-1.33,.69-2.09v-2.92c.06-.73-.19-1.46-.69-2-.53-.45-1.22-.68-1.91-.63h-3.46v8.27h3.37c.72,.07,1.45-.16,2-.63Zm-4.21-.38v-6.27h2.21c1.1,0,1.51,.49,1.54,1.75v2.78c0,1.28-.37,1.72-1.53,1.74h-2.22Z"/><polygon class="b" points="22.31 11.56 18.24 11.56 18.24 8.16 17.08 8.16 17.08 16.42 18.24 16.42 18.24 12.57 22.31 12.57 22.31 16.42 23.47 16.42 23.47 8.16 22.31 8.16 22.31 11.56"/><polygon class="b" points="29.03 14.91 29 15.06 28.97 14.92 26.81 8.16 25.59 8.16 28.36 16.42 29.54 16.42 32.39 8.16 31.28 8.16 29.03 14.91"/><polygon class="b" points="53.92 14.91 53.88 15.06 53.85 14.92 51.69 8.16 50.48 8.16 53.25 16.42 54.43 16.42 57.27 8.16 56.16 8.16 53.92 14.91"/><path class="b" d="M62.73,11.96l-1.86-.55c-.55-.17-.93-.25-.92-.71v-.66c-.03-.46,.32-.85,.78-.88,.04,0,.08,0,.11,0h3.39v-.64c0-.31-.32-.37-.72-.37h-2.59c-.59-.04-1.18,.18-1.59,.61-.32,.34-.5,.8-.5,1.27v.81c0,1.05,.59,1.37,1.75,1.65l1.92,.56c.57,.17,.85,.29,.85,.76v.34c.08,.61-.36,1.17-.97,1.25-.06,0-.12,.01-.18,0h-3.38v.64c0,.27,.23,.37,.49,.37h2.9c1.09,.15,2.1-.61,2.26-1.71,.02-.17,.03-.34,0-.51v-.55c.02-1.07-.7-1.4-1.74-1.69Z"/><polygon class="b" points="34.51 16.42 39.95 16.42 39.95 15.41 35.67 15.41 35.67 12.57 39.04 12.57 39.04 11.55 35.67 11.55 35.67 9.16 39.95 9.16 39.95 8.16 34.51 8.16 34.51 16.42"/><path class="b" d="M46.64,13.12c.94,.08,1.76-.61,1.84-1.55,0-.09,0-.17,0-.26v-1.32c.04-.51-.14-1.02-.5-1.39-.44-.34-1-.5-1.55-.45h-3.77v8.27h1.16v-3.3h1.39l2.24,3.3h1.39l-2.29-3.3h.09Zm-2.82-1v-3h2.28c1,0,1.21,.12,1.23,.9v1.06c0,.83-.18,1-1.12,1l-2.39,.04Z"/><polygon class="b" points="0 16.42 5.44 16.42 5.44 15.41 1.15 15.41 1.15 12.57 4.53 12.57 4.53 11.55 1.15 11.55 1.15 9.16 5.44 9.16 5.44 8.16 0 8.16 0 16.42"/><path class="b" d="M12.13,13.12c.94,.08,1.76-.61,1.84-1.55,0-.09,0-.17,0-.26v-1.32c.04-.51-.14-1.02-.5-1.39-.44-.34-1-.5-1.55-.45h-3.77v8.27h1.16v-3.3h1.39l2.24,3.3h1.39l-2.29-3.3h.09Zm-2.82-1v-3h2.28c1,0,1.21,.12,1.23,.9v1.06c0,.83-.18,1-1.12,1l-2.39,.04Z"/><polygon class="b" points="80.52 16.42 81.81 16.42 78.86 12.09 81.72 8.16 80.34 8.16 77.77 11.67 76.8 11.67 76.8 8.16 75.62 8.16 75.62 16.42 76.8 16.42 76.8 12.69 77.85 12.69 80.52 16.42"/><path class="b" d="M142.82,14.12l.8,2.3h1.21l-2.9-8.33h-1.41l-2.8,8.33h1.13l.74-2.3h3.23Zm-1.61-5,0,.15l1.31,3.86h-2.57l1.26-3.86Z"/><path class="b" d="M134.34,14.12l.79,2.3h1.21l-2.9-8.33h-1.4l-2.8,8.33h1.13l.74-2.3h3.23Zm-1.61-5-.05,.15l1.36,3.84h-2.57l1.21-3.84Z"/><path class="b" d="M178.76,11.91l-1.85-.54c-.56-.17-.93-.26-.92-.71v-.67c-.03-.45,.31-.84,.77-.87,.04,0,.08,0,.12,0h3.39v-.64c0-.32-.32-.37-.72-.37h-2.6c-.59-.04-1.17,.18-1.58,.61-.32,.34-.5,.8-.5,1.27v.81c0,1,.59,1.36,1.75,1.65l1.92,.55c.57,.17,.84,.29,.84,.76v.35c.07,.61-.37,1.17-.98,1.24-.05,0-.11,0-.16,0h-3.38v.65c0,.26,.23,.36,.48,.36h2.9c.59,.04,1.17-.14,1.63-.51,.45-.45,.68-1.08,.64-1.71v-.55c.01-1.02-.7-1.35-1.75-1.69Z"/><path class="b" d="M170.73,14.04c0,.91-.4,1.46-1.29,1.47h-1.34c-.89,0-1.28-.56-1.29-1.47v-5.89h-1.16v5.93c-.05,.69,.2,1.38,.68,1.88,.51,.42,1.15,.64,1.81,.6h1.24c.67,.04,1.32-.18,1.82-.63,.47-.51,.71-1.2,.66-1.89v-5.89h-1.13v5.89Z"/><polygon class="b" points="161.19 11.56 157.12 11.56 157.12 8.15 155.96 8.15 155.96 16.42 157.12 16.42 157.12 12.57 161.19 12.57 161.19 16.42 162.35 16.42 162.35 8.15 161.19 8.15 161.19 11.56"/><path class="b" d="M151.04,13.11c.93,.09,1.75-.6,1.84-1.53,0-.09,0-.18,0-.27v-1.32c.04-.51-.14-1.02-.5-1.39-.44-.34-1-.5-1.55-.45h-3.79v8.27h1.16v-3.31h1.39l2.24,3.31h1.38l-2.28-3.31h.11Zm-2.82-1v-3h2.28c1,0,1.21,.12,1.23,.9v1.06c0,.83-.19,1-1.12,1l-2.39,.04Z"/><path class="c" d="M176.04,29.42c-1.32,0-2.39,1.07-2.39,2.39s1.07,2.39,2.39,2.39,2.39-1.07,2.39-2.39h0c0-1.32-1.07-2.39-2.39-2.39Z"/><path class="c" d="M186.11,17.42c-2.97,0-5.37,2.4-5.37,5.37,0,2.97,2.4,5.37,5.37,5.37,2.97,0,5.37-2.4,5.37-5.37h0c0-2.97-2.4-5.37-5.37-5.37Z"/><path class="c" d="M201.48,0c-4.87,0-8.81,3.94-8.81,8.81s3.94,8.81,8.81,8.81c4.87,0,8.81-3.94,8.81-8.81h0C210.29,3.94,206.35,0,201.49,0h-.01Z"/></svg>