<?xml version="1.0" encoding="UTF-8"?>
<svg xmlns="http://www.w3.org/2000/svg" viewBox="0 0 93.51 93.51">
	<defs>
		<style>
			.e{fill:transparent;stroke:#57b6ca;stroke-miterlimit:10;stroke-width:2px;}
		</style>
	</defs>
	<g id="a" />
	<g id="b">
		<g id="c">
			<path id="d" class="e" d="M46.75,.9C21.43,.9,.9,21.43,.9,46.75s20.53,45.86,45.86,45.86,45.86-20.53,45.86-45.86c0-25.32-20.52-45.85-45.84-45.86,0,0-.01,0-.02,0Zm21.39,50.3l-32.54,18.68c-2.15,1.19-4.85,.41-6.04-1.73-.36-.66-.56-1.4-.56-2.15V27.52c0-2.46,2-4.44,4.46-4.44,.75,0,1.49,.19,2.14,.56l32.54,19.79c2.14,1.2,2.91,3.92,1.71,6.06-.4,.71-.99,1.3-1.71,1.71h0Z" />
		</g>
	</g>
</svg>
